<?xml version="1.0" standalone="no"?>
<!DOCTYPE svg PUBLIC "-//W3C//DTD SVG 20010904//EN"
 "http://www.w3.org/TR/2001/REC-SVG-20010904/DTD/svg10.dtd">
<svg version="1.0" xmlns="http://www.w3.org/2000/svg"
 width="400.000000pt" height="400.000000pt" viewBox="0 0 400.000000 400.000000"
 preserveAspectRatio="xMidYMid meet">
<metadata>
Created by potrace 1.16, written by Peter Selinger 2001-2019
</metadata>
<g transform="translate(0.000000,400.000000) scale(0.100000,-0.100000)"
fill="#000000" stroke="none">
<path d="M1617 2950 c-92 -16 -188 -95 -229 -188 -29 -64 -29 -180 -1 -244 43
-96 161 -188 240 -188 49 0 40 -16 -14 -24 -25 -3 -65 -17 -87 -30 -217 -128
-212 -441 9 -555 61 -31 133 -41 306 -41 l159 0 0 640 0 640 -167 -1 c-93 -1
-189 -5 -216 -9z"/>
</g>
</svg>
