<?xml version="1.0" standalone="no"?>
<!DOCTYPE svg PUBLIC "-//W3C//DTD SVG 20010904//EN"
 "http://www.w3.org/TR/2001/REC-SVG-20010904/DTD/svg10.dtd">
<svg version="1.0" xmlns="http://www.w3.org/2000/svg"
 width="360.000000pt" height="360.000000pt" viewBox="0 0 360.000000 360.000000"
 preserveAspectRatio="xMidYMid meet">
<metadata>
Created by potrace 1.16, written by Peter Selinger 2001-2019
</metadata>
<g transform="translate(0.000000,360.000000) scale(0.100000,-0.100000)"
fill="#000000" stroke="none">
<path d="M1605 3525 c-275 -36 -529 -131 -756 -284 -631 -424 -915 -1189 -714
-1926 153 -561 598 -1023 1157 -1200 303 -96 642 -107 951 -29 706 176 1229
771 1318 1498 17 139 6 412 -21 541 -101 474 -370 869 -772 1132 -339 222
-762 320 -1163 268z m467 -214 c441 -76 824 -335 1058 -716 273 -445 300
-1020 70 -1487 -152 -309 -399 -557 -708 -712 -82 -41 -254 -101 -319 -112
l-43 -7 0 224 c-1 212 -2 228 -25 294 -14 39 -26 74 -27 79 -2 5 35 17 82 27
125 27 240 88 321 168 118 118 153 219 152 436 -1 212 -32 337 -103 419 l-34
38 17 63 c20 73 22 143 6 213 -16 76 -28 88 -76 74 -60 -18 -126 -66 -185
-135 l-53 -63 -41 18 c-149 65 -523 61 -654 -7 -25 -13 -28 -12 -66 37 -48 62
-142 134 -196 150 -52 15 -62 3 -78 -95 -13 -72 -8 -152 12 -219 10 -35 9 -39
-26 -79 -70 -83 -99 -203 -100 -424 0 -138 2 -156 27 -228 15 -42 39 -96 53
-119 69 -109 192 -189 377 -243 79 -23 97 -32 91 -44 -25 -62 -44 -125 -44
-151 0 -40 -34 -61 -113 -67 -123 -10 -231 42 -310 149 -56 77 -102 125 -136
143 -53 26 -151 30 -151 5 0 -4 30 -39 68 -76 48 -49 82 -96 117 -163 64 -122
118 -182 203 -223 64 -32 71 -33 189 -33 l123 0 0 -87 c0 -68 -3 -88 -14 -88
-25 0 -211 50 -266 72 -334 132 -621 382 -791 690 -280 505 -254 1133 65 1612
233 349 605 593 1013 665 150 27 365 27 515 2z"/>
</g>
</svg>
